# xmcd
#
# Track frame offsets: 
#        150
#        12001
#        29755
#        44918
#        59766
#        84162
#        102299
#        115282
#        129992
#        145469
#        162496
#        174260
#
# Disc length: 2637 seconds
#
# Revision: 0
# Processed by: cddbd v1.5.2PL0 Copyright (c) Steve Scherf et al.
# Submitted via: ExactAudioCopyFreeDBPlugin 1.0
#
DISCID=a70a4b0c
DTITLE=Drew Holcomb and the Neighbors - Medicine
DYEAR=2014
DGENRE=Folk
TTITLE0=American Beauty
TTITLE1=Tightrope
TTITLE2=Here We Go
TTITLE3=Shine LIke Lightning
TTITLE4=Avalanche
TTITLE5=Heartbreak
TTITLE6=You'll Always be my Girl
TTITLE7=Sisters Brothers
TTITLE8=The Last Thing We Do
TTITLE9=Ain't Nobody Got it Easy
TTITLE10=I've Got You
TTITLE11=When It's All Said and Done
EXTD=
EXTT0=
EXTT1=
EXTT2=
EXTT3=
EXTT4=
EXTT5=
EXTT6=
EXTT7=
EXTT8=
EXTT9=
EXTT10=
EXTT11=
PLAYORDER=
